<?xml version="1.0" encoding="utf-8"?>
<!-- Generator: Adobe Illustrator 26.0.3, SVG Export Plug-In . SVG Version: 6.00 Build 0)  -->
<svg version="1.1" id="レイヤー_1" xmlns="http://www.w3.org/2000/svg" xmlns:xlink="http://www.w3.org/1999/xlink" x="0px"
	 y="0px" viewBox="0 0 100.13 100.13" style="enable-background:new 0 0 100.13 100.13;" xml:space="preserve">
<style type="text/css">
	.st0{fill:none;}
	.st1{fill:#2ECC87;}
</style>
<g>
	<rect class="st0" width="100.13" height="100.13"/>
	<g>
		<path class="st1" d="M56.24,51.66c3.78,7.63,11.56,12.3,19.82,12.3c2.45,0,4.94-0.41,7.39-1.27l2.22-0.78l-3.68-4.89
			C75.9,48.92,64.82,46.78,56.24,51.66z"/>
		<path class="st1" d="M55.15,47.89c12.21-1.87,21.56-12.41,21.56-25.14v-4.33L69.1,21.1C58.06,25.01,52.06,36.78,55.15,47.89z"/>
		<path class="st1" d="M53.01,54.5c-7.47,6.85-8.65,18.37-2.44,26.64l3.27,4.35l1.39-1.85C62.01,74.64,60.87,62.16,53.01,54.5z"/>
		<path class="st1" d="M50.87,48.17c3.3-12.65-3.58-25.94-16.13-30.38l-8.91-3.15v8.1C25.84,36.66,37.01,47.96,50.87,48.17z"/>
		<path class="st1" d="M26.51,67.52c9.95,0,19.3-5.89,23.38-15.43c-9.68-6.33-22.75-4.15-29.8,5.23l-5.62,7.48l3.56,1.26
			C20.84,67.05,23.7,67.52,26.51,67.52z"/>
	</g>
</g>
</svg>
