<?xml version="1.0" standalone="no"?>
<!DOCTYPE svg PUBLIC "-//W3C//DTD SVG 20010904//EN"
 "http://www.w3.org/TR/2001/REC-SVG-20010904/DTD/svg10.dtd">
<svg version="1.0" xmlns="http://www.w3.org/2000/svg"
 width="1111.000000pt" height="1111.000000pt" viewBox="0 0 1111.000000 1111.000000"
 preserveAspectRatio="xMidYMid meet">
<metadata>
Created by potrace 1.14, written by Peter Selinger 2001-2017
</metadata>
<g transform="translate(0.000000,1111.000000) scale(0.100000,-0.100000)"
fill="#000000" stroke="none">
<path d="M2790 11099 c-220 -22 -401 -175 -466 -394 -16 -55 -18 -126 -19
-914 0 -634 3 -863 12 -889 15 -45 66 -96 106 -108 19 -6 265 -10 588 -9 l556
0 42 28 c28 19 49 44 62 72 18 42 19 76 19 892 -1 934 0 917 -62 1037 -41 77
-156 192 -229 228 -97 48 -166 60 -364 62 -99 0 -209 -2 -245 -5z"/>
<path d="M7107 11104 c-1 -1 -27 -4 -58 -7 -166 -18 -329 -135 -408 -293 -58
-117 -58 -110 -57 -1045 l1 -855 27 -41 c53 -80 31 -77 664 -78 640 0 601 -5
664 85 l25 35 0 855 c1 600 -3 871 -11 910 -45 223 -222 391 -448 427 -26 4
-395 10 -399 7z"/>
<path d="M1255 10202 c-22 -1 -79 -9 -127 -18 -388 -68 -708 -335 -856 -714
-12 -30 -32 -93 -44 -140 l-23 -85 -2 -3625 c-1 -1994 2 -3650 7 -3680 18
-116 23 -136 49 -214 15 -45 29 -88 32 -96 7 -27 81 -164 115 -215 86 -130
221 -264 351 -351 116 -77 315 -159 433 -179 25 -4 54 -10 65 -14 11 -3 1252
-7 2757 -8 l2738 -3 147 -148 c198 -197 362 -319 595 -440 250 -130 546 -221
808 -247 30 -3 73 -8 95 -11 52 -6 317 -6 375 1 181 20 193 22 330 51 130 29
274 74 402 128 99 40 251 117 256 129 2 4 8 7 13 7 16 0 199 123 285 191 296
235 556 572 698 904 36 84 84 207 90 230 1 6 10 35 19 65 19 64 53 217 61 275
4 23 8 50 10 62 11 53 19 189 20 318 5 533 -168 1041 -503 1475 -66 84 -258
285 -337 351 l-41 34 -1 2465 c0 2701 4 2546 -57 2726 -79 235 -235 443 -437
582 -118 81 -253 139 -403 172 -92 20 -129 22 -447 24 l-347 2 -3 -686 c-3
-678 -4 -686 -25 -743 -78 -206 -250 -359 -443 -395 -19 -4 -314 -7 -655 -7
l-620 0 -67 26 c-100 39 -173 87 -239 156 -69 74 -132 197 -149 293 -8 45 -12
260 -11 707 0 491 -3 642 -12 645 -10 4 -1996 3 -2037 -1 -13 -1 -15 -77 -15
-633 0 -348 -3 -658 -7 -688 -37 -249 -217 -441 -468 -499 -51 -12 -1241 -10
-1277 2 -13 4 -32 9 -43 11 -76 17 -184 87 -263 170 -78 82 -133 198 -156 331
-1 3 -1 299 -1 658 l0 652 -297 0 c-164 0 -316 -1 -338 -3z"/>
</g>
</svg>
